<?xml version="1.0" encoding="utf-8"?>
<svg viewBox="391.628 238 24 24" xmlns="http://www.w3.org/2000/svg">
  <path d="M0 0h24v24H0z" fill="none" transform="matrix(1, 0, 0, 1, 391.628143, 238.000015)"/>
  <path style="stroke: none; fill: #ca3c97;" d="M7 7h10v3l4-4-4-4v3H5v6h2V7zm10 10H7v-3l-4 4 4 4v-3h12v-6h-2v4z" transform="matrix(1, 0, 0, 1, 391.628143, 238.000015)"/>
  <path style="stroke: none; fill: #ca3c97;" d="M 403.346 253.433 C 402.953 253.433 402.589 253.38 402.256 253.273 C 401.923 253.173 401.643 253.023 401.416 252.823 L 401.876 251.983 C 402.003 252.096 402.196 252.206 402.456 252.313 C 402.716 252.426 403.006 252.483 403.326 252.483 C 403.733 252.483 404.066 252.366 404.326 252.133 C 404.586 251.906 404.716 251.593 404.716 251.193 C 404.716 250.82 404.596 250.513 404.356 250.273 C 404.123 250.033 403.743 249.913 403.216 249.913 C 402.943 249.913 402.659 249.936 402.366 249.983 C 402.073 250.03 401.866 250.086 401.746 250.153 L 401.886 246.673 L 405.276 246.673 L 405.276 247.563 L 402.866 247.563 L 402.776 249.123 C 402.949 249.076 403.199 249.053 403.526 249.053 C 404.226 249.053 404.773 249.236 405.166 249.603 C 405.566 249.963 405.766 250.46 405.766 251.093 C 405.766 251.553 405.673 251.96 405.486 252.313 C 405.299 252.666 405.023 252.94 404.656 253.133 C 404.289 253.333 403.853 253.433 403.346 253.433 Z" transform="matrix(1, 0, 0, 1, 0, 0)"/>
</svg>